<svg xmlns="http://www.w3.org/2000/svg" viewBox="0 0 434.22 151.31"><defs><style>.cls-1{fill:#121228;}</style></defs><g id="Capa_2" data-name="Capa 2"><g id="Logo5"><path class="cls-1" d="M164,39.54a1.3,1.3,0,0,1-1-.39,1.28,1.28,0,0,1-.39-.94V7.41h-10.3A1.33,1.33,0,0,1,151,6.07V2a1.35,1.35,0,0,1,.39-1,1.3,1.3,0,0,1,.95-.39h28.4a1.37,1.37,0,0,1,1,.39,1.39,1.39,0,0,1,.39,1V6.07a1.34,1.34,0,0,1-.39.95,1.37,1.37,0,0,1-1,.39H170.48v30.8a1.28,1.28,0,0,1-.39.94,1.37,1.37,0,0,1-1,.39Z"/><path class="cls-1" d="M187.46,39.54a1.33,1.33,0,0,1-1.33-1.33V1.34a1.3,1.3,0,0,1,.39-.95,1.28,1.28,0,0,1,.94-.39h5a1.25,1.25,0,0,1,1,.39,1.32,1.32,0,0,1,.37,1V14a11,11,0,0,1,9-4,11.26,11.26,0,0,1,5.93,1.53,10.33,10.33,0,0,1,3.93,4.31A15,15,0,0,1,214,22.56V38.21a1.28,1.28,0,0,1-.39.94,1.3,1.3,0,0,1-.95.39h-5a1.3,1.3,0,0,1-1-.39,1.28,1.28,0,0,1-.39-.94V22.89a7.56,7.56,0,0,0-1.58-5.07,5.77,5.77,0,0,0-4.6-1.84,6.15,6.15,0,0,0-4.65,1.84,7.05,7.05,0,0,0-1.75,5.07V38.21a1.3,1.3,0,0,1-.37.94,1.25,1.25,0,0,1-1,.39Z"/><path class="cls-1" d="M233.58,40.1q-6.18,0-9.8-3.56t-3.9-10.14a13.63,13.63,0,0,1-.06-1.42,12.22,12.22,0,0,1,.06-1.37,16.67,16.67,0,0,1,1.92-7.24,11.68,11.68,0,0,1,4.7-4.7A14.52,14.52,0,0,1,233.58,10a14.33,14.33,0,0,1,7.57,1.86,11.94,11.94,0,0,1,4.63,5.18,17.94,17.94,0,0,1,1.55,7.66V25.9a1.26,1.26,0,0,1-.39.94,1.31,1.31,0,0,1-1,.39H227.45v.45a10,10,0,0,0,.75,3.59,6.26,6.26,0,0,0,2.06,2.65,5.35,5.35,0,0,0,3.26,1,6.53,6.53,0,0,0,2.62-.47,6.67,6.67,0,0,0,1.73-1.09,7.08,7.08,0,0,0,.94-1,2.69,2.69,0,0,1,.81-.81,2.36,2.36,0,0,1,.92-.14h4.79a1.28,1.28,0,0,1,.92.34,1,1,0,0,1,.31.83,4.73,4.73,0,0,1-.92,2.17,11,11,0,0,1-2.48,2.51,14,14,0,0,1-4,2A17.46,17.46,0,0,1,233.58,40.1Zm-6.13-17.54h12.31v-.17A9.25,9.25,0,0,0,239,18.6,6.06,6.06,0,0,0,236.92,16a5.9,5.9,0,0,0-8.77,2.56,9.43,9.43,0,0,0-.7,3.79Z"/><circle class="cls-1" cx="50.61" cy="137.09" r="6.57"/><circle class="cls-1" cx="6.57" cy="105.13" r="6.57"/><path class="cls-1" d="M59,107.39H10.67a1.51,1.51,0,0,1-1.51-1.51v-1.63a1.51,1.51,0,0,1,1.51-1.51H59a1.51,1.51,0,0,1,1.06.45,1.46,1.46,0,0,1,.45,1.06v1.63A1.52,1.52,0,0,1,59,107.39Z"/><path class="cls-1" d="M11.77,101.11c.1,0,.47,1,1.55,1.46.45.18.82.15.81.21a1.58,1.58,0,0,1-1.43,0A1.8,1.8,0,0,1,11.77,101.11Z"/><path class="cls-1" d="M12.05,108.63c.12.06.45-.88,1.37-1.17a3.07,3.07,0,0,1,.81-.09,1.54,1.54,0,0,0-1.57-.08A1.33,1.33,0,0,0,12.05,108.63Z"/><circle class="cls-1" cx="6.57" cy="49.01" r="6.57"/><path class="cls-1" d="M34.34,51.27H9.92c-.42,0-.76-.67-.76-1.5V48.14c0-.83.34-1.51.76-1.51H34.34s.32,0,.53.44a2.42,2.42,0,0,1,.23,1.07v1.63C35.1,50.6,34.76,51.27,34.34,51.27Z"/><path class="cls-1" d="M11.77,45c.1-.06.47,1,1.55,1.46.45.17.82.15.81.2a1.6,1.6,0,0,1-1.43,0A1.81,1.81,0,0,1,11.77,45Z"/><path class="cls-1" d="M12.05,52.52c.12.06.45-.88,1.37-1.17a4.15,4.15,0,0,1,.81-.1,1.57,1.57,0,0,0-1.57-.07A1.33,1.33,0,0,0,12.05,52.52Z"/><path class="cls-1" d="M30.46,61.62V37.21c0-.42.67-.76,1.5-.76h1.63c.83,0,1.51.34,1.51.76V61.62c0,.06,0,.32-.44.54a2.42,2.42,0,0,1-1.07.22H32C31.13,62.38,30.46,62,30.46,61.62Z"/><path class="cls-1" d="M38.34,72.39,30.48,61.88c-.13-.18.3-.73,1-1.23l1.31-1c.66-.49,1.31-.75,1.45-.57l.52.69c.53.72,6.79,9.1,7.34,9.82,0,0,.09.15-.18.5a4.7,4.7,0,0,1-.78.73l-1.31,1C39.12,72.31,38.48,72.57,38.34,72.39Z"/><circle class="cls-1" cx="31.1" cy="19.77" r="6.57"/><path class="cls-1" d="M58.87,22H34.45c-.42,0-.76-.68-.76-1.51V18.89c0-.83.34-1.5.76-1.5H58.87c.05,0,.32,0,.54.44a2.52,2.52,0,0,1,.22,1.06v1.63C59.63,21.35,59.29,22,58.87,22Z"/><path class="cls-1" d="M36.31,15.75c.1-.05.47,1.05,1.54,1.46.45.18.82.15.81.21a1.6,1.6,0,0,1-1.43,0A1.78,1.78,0,0,1,36.31,15.75Z"/><path class="cls-1" d="M36.58,23.27c.13.06.46-.88,1.37-1.17a3.72,3.72,0,0,1,.81-.09,1.54,1.54,0,0,0-1.57-.08A1.33,1.33,0,0,0,36.58,23.27Z"/><circle class="cls-1" cx="29.87" cy="120.43" r="6.57"/><path class="cls-1" d="M59.71,122.69H33.28c-.45,0-.82-.68-.82-1.51v-1.63c0-.83.37-1.5.82-1.5H59.71c.06,0,.35,0,.58.44a2.24,2.24,0,0,1,.25,1.06v1.63C60.54,122,60.17,122.69,59.71,122.69Z"/><path class="cls-1" d="M35.07,116.41c.1,0,.47,1,1.55,1.46.44.18.81.15.81.21a1.61,1.61,0,0,1-1.43,0A1.78,1.78,0,0,1,35.07,116.41Z"/><path class="cls-1" d="M35.35,123.93c.12.06.45-.88,1.36-1.17a3.79,3.79,0,0,1,.82-.09,1.56,1.56,0,0,0-1.58-.08A1.34,1.34,0,0,0,35.35,123.93Z"/><circle class="cls-1" cx="52.12" cy="51.1" r="6.57"/><path class="cls-1" d="M49.86,92.93V54.87a1.37,1.37,0,0,1,1.5-1.18H53a1.37,1.37,0,0,1,1.5,1.18V92.93a1.08,1.08,0,0,1-.44.84,1.69,1.69,0,0,1-1.06.35H51.36A1.37,1.37,0,0,1,49.86,92.93Z"/><path class="cls-1" d="M56.14,56.3c0,.1-1,.47-1.47,1.55-.17.45-.15.81-.2.81a1.6,1.6,0,0,1,0-1.43A1.79,1.79,0,0,1,56.14,56.3Z"/><path class="cls-1" d="M48.61,56.58c-.06.12.89.45,1.18,1.37a4.59,4.59,0,0,1,.09.81A1.58,1.58,0,0,0,50,57.18,1.36,1.36,0,0,0,48.61,56.58Z"/><path class="cls-1" d="M50.18,89.48H60.51c.18,0,.33.67.33,1.5v1.63c0,.83-.15,1.51-.33,1.51H50.18s-.13,0-.23-.44a6.11,6.11,0,0,1-.09-1.07V91C49.86,90.15,50,89.48,50.18,89.48Z"/><path class="cls-1" d="M39.74,93.19,15.56,69a1.36,1.36,0,0,1,.31-1.82L17,66.05a1.33,1.33,0,0,1,1.81-.31l1.6,1.59L43,89.91a.92.92,0,0,1,.22.84,1.81,1.81,0,0,1-.53,1l-1.15,1.16A1.34,1.34,0,0,1,39.74,93.19Z"/><path class="cls-1" d="M18.46,70.14H1.12c-.29,0-.54-.67-.54-1.51V67c0-.83.25-1.5.54-1.5H18.46s.23,0,.38.44A3.2,3.2,0,0,1,19,67v1.63C19,69.47,18.76,70.14,18.46,70.14Z"/><path class="cls-1" d="M38.62,102.56V90.78c0-.2.67-.36,1.5-.36h1.64c.83,0,1.5.16,1.5.36v11.78s0,.15-.44.26a5.15,5.15,0,0,1-1.06.1H40.12C39.29,102.92,38.62,102.76,38.62,102.56Z"/><path class="cls-1" d="M71.61,132.08h0c0,4.1.05,8.2,0,12.31a3.72,3.72,0,0,0,1.23,3c4.72,4.72,14.51,4.74,19.61,0,.68-.64,1.13-1.31,2.41-1,6.08,1.7,12-.66,14.44-6.43,1.31-3.09,3-3.92,6-4.28a14.29,14.29,0,0,0,11.87-10.57c.36-1.72.17-2.51-1.85-2.36-2.24.17-4.51-.08-6.75.08a6.2,6.2,0,0,1-5.08-2.11c-8-7.68-15.62-15.78-23.44-23.66a3.72,3.72,0,0,0-2.88-1.42c-4.66.08-9.33.07-14,0-1.27,0-1.65.38-1.63,1.65.08,4.18.11,8.36,0,12.55,0,1.55.52,1.9,1.93,1.88q5.31-.09,10.62.05a4.3,4.3,0,0,0,3-1.11,9.9,9.9,0,0,1,9.69-1.9,11.12,11.12,0,0,1,7.63,10.84,10.51,10.51,0,0,1-7.56,10c-4.35,1.43-8.85-.22-11.84-4.26a11.68,11.68,0,0,1-2-5.83c-.14-1.25-.51-1.78-1.89-1.72a68.94,68.94,0,0,1-7.47,0c-1.76-.1-2.14.58-2.09,2.21C71.68,124,71.61,128.05,71.61,132.08Z"/><path class="cls-1" d="M140.63,89.49c4.67-7.12,3.89-15-2-21.17-1-1.09-2.86-2-3-3.19s1.31-2.61,2-3.95c5.53-10.53.34-23.58-10.83-26.33-3.19-.79-3.51-2.11-3.66-4.89-.7-13-11-19.71-21.06-19.16-1.89.11-4.11,1.57-5.51.94S94.78,8.55,93.73,7C89.32.35,81.32-1.5,74.69,2.55c-1.49.91-3.06,1.86-3.07,4,0,2.82-.09,5.63-.1,8.45,0,.57-.29,1.39.73,1.46s1.68-.13,1.76-1.18a5.25,5.25,0,0,1,1.55-3.43,6.78,6.78,0,0,1,8.79-.42,6.76,6.76,0,0,1,1.18,8.73A6.58,6.58,0,0,1,77,22c-1.88-1-5.31.91-5.32,3.06,0,5.31,0,10.62,0,15.93V53.09c0,5.78,0,5.82,5.88,5.79,1.3,0,2.72.49,3.87-.71q5.91-6.2,11.9-12.31c.72-.74.73-1.15-.1-1.9a10.24,10.24,0,0,1-3-11,11.23,11.23,0,0,1,13.6-7.76,11.07,11.07,0,0,1,7.49,13.31c-1.35,5.08-5,7.64-9.93,8.66a5.06,5.06,0,0,0-2.83,1.56c-3.77,4-7.71,7.78-11.3,11.89-2.73,3.13-5.73,4.87-10,4.1-1.25-.23-2.58,0-3.85-.07s-1.74.44-1.73,1.78c.06,7.16.08,14.32,0,21.48,0,1.63.51,2,2,2,5.47-.08,11,0,16.42-.06A3.63,3.63,0,0,1,93,91.09q11.77,12.27,23.63,24.46a4.88,4.88,0,0,0,3,1.81c15.56,1.47,25.92-10.51,20.53-24.38A3.33,3.33,0,0,1,140.63,89.49Zm-18.78,10.72c-2.9.58-6.92-2.1-7.38-5.2a4.24,4.24,0,0,0-1.59-2.71c-2.62-2.49-5.1-5.13-7.69-7.65a2.92,2.92,0,0,1-1-2.57,1.92,1.92,0,0,0,0-.24c0-3.86-.94-8.1.35-11.47s4.76-5.7,7.39-8.4a6.08,6.08,0,0,0,2-4.42A6.36,6.36,0,0,1,121,51.6a6.69,6.69,0,0,1,5.84,7.49c-.55,3.78-4,6.66-7.45,5.86a2.75,2.75,0,0,0-3.2,1.14c-1.15,1.34-2.52,2.49-3.74,3.76-3.4,3.51-2.84,1.91-2.83,7.3-.69,2.37.64,4.32,2.72,6A17.47,17.47,0,0,1,114.2,85c1.67,1.8,2.91,3.59,6.22,2.46s6.25,1.62,6.88,5.56C127.8,96.15,125.22,99.54,121.85,100.21Z"/><path class="cls-1" d="M159.59,150.76a1.3,1.3,0,0,1-1-.39,1.34,1.34,0,0,1-.39-1V113.11a1.34,1.34,0,0,1,.39-1,1.3,1.3,0,0,1,1-.39h5.18a1.33,1.33,0,0,1,1.34,1.34v31h17.65a1.37,1.37,0,0,1,1,.39,1.34,1.34,0,0,1,.38,1v3.9a1.29,1.29,0,0,1-.38,1,1.37,1.37,0,0,1-1,.39Z"/><path class="cls-1" d="M198.3,151.31a11.82,11.82,0,0,1-5.24-1.14,9.58,9.58,0,0,1-3.7-3.06,7.62,7.62,0,0,1,1.78-10.53,18.57,18.57,0,0,1,8.33-3.09l7.63-1.11v-1.17a5.17,5.17,0,0,0-1.17-3.62c-.78-.86-2.12-1.28-4-1.28a6,6,0,0,0-3.26.8,4.9,4.9,0,0,0-1.86,2.15,1.44,1.44,0,0,1-1.29.72h-4.4a1.18,1.18,0,0,1-.91-.33,1.25,1.25,0,0,1-.31-.89,5.68,5.68,0,0,1,.72-2.18,8.31,8.31,0,0,1,2.12-2.47,12.61,12.61,0,0,1,3.73-2,16.28,16.28,0,0,1,5.52-.83,18,18,0,0,1,5.93.86,10.44,10.44,0,0,1,3.87,2.31,8.78,8.78,0,0,1,2.11,3.4,12.49,12.49,0,0,1,.67,4.12v17.49a1.3,1.3,0,0,1-.39,1,1.28,1.28,0,0,1-.94.39h-4.52a1.27,1.27,0,0,1-1-.39,1.36,1.36,0,0,1-.36-1v-2.17a8.85,8.85,0,0,1-1.95,2,10.28,10.28,0,0,1-3,1.51A13.2,13.2,0,0,1,198.3,151.31Zm1.89-5.29a7.57,7.57,0,0,0,3.54-.83,5.92,5.92,0,0,0,2.5-2.59,9.42,9.42,0,0,0,.92-4.43V137l-5.57.89a11.81,11.81,0,0,0-4.9,1.62,3.26,3.26,0,0,0-1.61,2.73,3.06,3.06,0,0,0,.75,2.08,4.37,4.37,0,0,0,1.92,1.28A7.21,7.21,0,0,0,200.19,146Z"/><path class="cls-1" d="M237.73,151.31a11.61,11.61,0,0,1-5.37-1.11,11,11,0,0,1-3.54-2.84v2.06a1.36,1.36,0,0,1-.36,1,1.27,1.27,0,0,1-1,.39h-4.4a1.26,1.26,0,0,1-.94-.39,1.3,1.3,0,0,1-.39-1V112.55a1.3,1.3,0,0,1,.39-1,1.26,1.26,0,0,1,.94-.39h4.74a1.25,1.25,0,0,1,1,.39,1.36,1.36,0,0,1,.36,1v12.36a11,11,0,0,1,3.49-2.64,11.38,11.38,0,0,1,5.09-1,12.05,12.05,0,0,1,5.12,1,10.14,10.14,0,0,1,3.65,2.81,13,13,0,0,1,2.26,4.21,17.51,17.51,0,0,1,.83,5.18c0,.67.06,1.27.06,1.81s0,1.14-.06,1.81a19.67,19.67,0,0,1-.89,5.32,13,13,0,0,1-2.22,4.2,9.76,9.76,0,0,1-3.63,2.76A12.38,12.38,0,0,1,237.73,151.31Zm-2.06-6a6,6,0,0,0,3.73-1,5.65,5.65,0,0,0,1.92-2.7A13.51,13.51,0,0,0,242,138a26.75,26.75,0,0,0,0-3.35,13.51,13.51,0,0,0-.7-3.67,5.74,5.74,0,0,0-1.92-2.7,6,6,0,0,0-3.73-1,6,6,0,0,0-3.62,1,6.48,6.48,0,0,0-2.12,2.53,8.19,8.19,0,0,0-.78,3.21c0,.66-.05,1.38-.05,2.14s0,1.48.05,2.14a11.51,11.51,0,0,0,.75,3.37,5.75,5.75,0,0,0,5.77,3.76Z"/><path class="cls-1" d="M176.76,104.23a28.34,28.34,0,0,1-11.93-2.3,17.19,17.19,0,0,1-7.8-7.1,25,25,0,0,1-3-12q-.08-3.35-.08-6.62c0-2.19,0-4.42.08-6.71a23.93,23.93,0,0,1,3.12-11.85A18.43,18.43,0,0,1,165,50.5a29.87,29.87,0,0,1,23.51,0,18.37,18.37,0,0,1,7.95,7.18,23.93,23.93,0,0,1,3.12,11.85c.11,2.29.16,4.52.16,6.71s0,4.39-.16,6.62a25,25,0,0,1-3,12,17.16,17.16,0,0,1-7.83,7.1A28.69,28.69,0,0,1,176.76,104.23Zm0-9a11.57,11.57,0,0,0,8.26-3q3.19-3,3.43-9.79.17-3.42.16-6.35t-.16-6.28a16.89,16.89,0,0,0-1.67-7.37,9.46,9.46,0,0,0-4.1-4.13,13,13,0,0,0-5.92-1.29,12.87,12.87,0,0,0-5.85,1.29,9.38,9.38,0,0,0-4.09,4.13,16.74,16.74,0,0,0-1.68,7.37q-.07,3.36-.08,6.28t.08,6.35q.24,6.8,3.43,9.79A11.49,11.49,0,0,0,176.76,95.26Z"/><path class="cls-1" d="M210.91,103.45a1.86,1.86,0,0,1-1.87-1.87V64.85a1.9,1.9,0,0,1,.54-1.4,1.8,1.8,0,0,1,1.33-.55h6.32a1.92,1.92,0,0,1,1.36.55,1.82,1.82,0,0,1,.58,1.4v3.2a11.7,11.7,0,0,1,4.64-3.82,15.39,15.39,0,0,1,6.59-1.33h3.2a1.74,1.74,0,0,1,1.36.55,1.85,1.85,0,0,1,.51,1.32v5.62a1.85,1.85,0,0,1-.51,1.32,1.74,1.74,0,0,1-1.36.55h-6.08a7.76,7.76,0,0,0-5.81,2.1,7.89,7.89,0,0,0-2.07,5.77v21.45a1.8,1.8,0,0,1-.54,1.32,1.91,1.91,0,0,1-1.41.55Z"/><path class="cls-1" d="M243.11,56.2a1.76,1.76,0,0,1-1.87-1.87V48.71a1.85,1.85,0,0,1,.51-1.32,1.74,1.74,0,0,1,1.36-.55h7.1a1.88,1.88,0,0,1,1.4.55,1.8,1.8,0,0,1,.54,1.32v5.62a1.78,1.78,0,0,1-.54,1.36,2,2,0,0,1-1.4.51Zm.31,47.25a1.88,1.88,0,0,1-1.87-1.87V64.77a1.88,1.88,0,0,1,1.87-1.87h6.47a1.76,1.76,0,0,1,1.37.55,1.85,1.85,0,0,1,.51,1.32v36.81a1.85,1.85,0,0,1-.51,1.32,1.76,1.76,0,0,1-1.37.55Z"/><path class="cls-1" d="M280.46,120.6a25.19,25.19,0,0,1-9.36-1.48,17.07,17.07,0,0,1-5.77-3.59,13.85,13.85,0,0,1-3-4.17,10.49,10.49,0,0,1-1-3.23,1.6,1.6,0,0,1,.5-1.37,1.88,1.88,0,0,1,1.37-.58H270a2,2,0,0,1,1.25.35,2.6,2.6,0,0,1,.78,1.28,15.93,15.93,0,0,0,1.25,2.19,6.17,6.17,0,0,0,2.37,2,9.92,9.92,0,0,0,4.41.81,12.88,12.88,0,0,0,5-.85,6.1,6.1,0,0,0,3.08-2.89,12.35,12.35,0,0,0,1.05-5.61v-5.3a14,14,0,0,1-4.79,3.66,16.57,16.57,0,0,1-7.22,1.4,17.63,17.63,0,0,1-7.25-1.36A13.8,13.8,0,0,1,264.86,98a17.18,17.18,0,0,1-3.08-5.81,28.16,28.16,0,0,1-1.2-7.41c-.06-1.4-.06-2.8,0-4.21a29.09,29.09,0,0,1,1.16-7.25,17.25,17.25,0,0,1,3.08-5.89,14.17,14.17,0,0,1,5.11-3.93,17.14,17.14,0,0,1,7.25-1.41,15.31,15.31,0,0,1,7.49,1.68,16.13,16.13,0,0,1,5,4.17V64.85a1.87,1.87,0,0,1,.55-1.4,1.77,1.77,0,0,1,1.32-.55h6.32a1.77,1.77,0,0,1,1.32.55,1.87,1.87,0,0,1,.55,1.4l.08,37.58a20.75,20.75,0,0,1-2.11,9.67,14.54,14.54,0,0,1-6.35,6.28A23.44,23.44,0,0,1,280.46,120.6ZM280.07,95a8.69,8.69,0,0,0,5.15-1.4,8.42,8.42,0,0,0,2.88-3.67,14.49,14.49,0,0,0,1.09-4.6c.05-.67.08-1.53.08-2.57s0-1.87-.08-2.5a14.23,14.23,0,0,0-1.09-4.64,8.68,8.68,0,0,0-2.88-3.66,9.93,9.93,0,0,0-10.3,0,7.81,7.81,0,0,0-2.77,3.78,18.69,18.69,0,0,0-1,5.15,22.15,22.15,0,0,0,0,3.82,18.91,18.91,0,0,0,1,5.1,7.61,7.61,0,0,0,2.77,3.79A8.67,8.67,0,0,0,280.07,95Z"/><path class="cls-1" d="M311.73,56.2a1.76,1.76,0,0,1-1.88-1.87V48.71a1.85,1.85,0,0,1,.51-1.32,1.76,1.76,0,0,1,1.37-.55h7.09a1.87,1.87,0,0,1,1.4.55,1.77,1.77,0,0,1,.55,1.32v5.62a1.75,1.75,0,0,1-.55,1.36,2,2,0,0,1-1.4.51Zm.31,47.25a1.86,1.86,0,0,1-1.87-1.87V64.77A1.86,1.86,0,0,1,312,62.9h6.47a1.75,1.75,0,0,1,1.36.55,1.85,1.85,0,0,1,.51,1.32v36.81a1.85,1.85,0,0,1-.51,1.32,1.75,1.75,0,0,1-1.36.55Z"/><path class="cls-1" d="M332.62,103.45a1.88,1.88,0,0,1-1.87-1.87V64.77a1.88,1.88,0,0,1,1.87-1.87H339a1.88,1.88,0,0,1,1.88,1.87V68a15.86,15.86,0,0,1,13-5.85,15.52,15.52,0,0,1,8.26,2.15,14.21,14.21,0,0,1,5.42,6,21.14,21.14,0,0,1,1.91,9.36v21.91a1.86,1.86,0,0,1-1.87,1.87h-6.86a1.86,1.86,0,0,1-1.87-1.87V80.13A10.49,10.49,0,0,0,356.68,73a8,8,0,0,0-6.44-2.57A8.44,8.44,0,0,0,343.77,73a9.94,9.94,0,0,0-2.42,7.09v21.45a1.86,1.86,0,0,1-1.87,1.87Z"/><path class="cls-1" d="M391.18,104.23a16.57,16.57,0,0,1-7.33-1.6,13.52,13.52,0,0,1-5.19-4.29,10.68,10.68,0,0,1,2.5-14.74,25.94,25.94,0,0,1,11.65-4.32l10.69-1.56V76.08A7.27,7.27,0,0,0,401.86,71q-1.64-1.79-5.61-1.79a8.36,8.36,0,0,0-4.57,1.13,6.9,6.9,0,0,0-2.61,3,2,2,0,0,1-1.79,1h-6.16a1.68,1.68,0,0,1-1.29-.46,1.82,1.82,0,0,1-.43-1.25,8,8,0,0,1,1-3,11.48,11.48,0,0,1,3-3.47,17.59,17.59,0,0,1,5.22-2.85,22.56,22.56,0,0,1,7.72-1.17,25.06,25.06,0,0,1,8.31,1.21,14.49,14.49,0,0,1,5.42,3.24,12.19,12.19,0,0,1,3,4.75,17.81,17.81,0,0,1,.94,5.77v24.49a1.88,1.88,0,0,1-1.88,1.87h-6.31a1.77,1.77,0,0,1-1.37-.55,1.89,1.89,0,0,1-.5-1.32v-3a12.06,12.06,0,0,1-2.73,2.76,14.82,14.82,0,0,1-4.17,2.11A18.34,18.34,0,0,1,391.18,104.23Zm2.65-7.41a10.45,10.45,0,0,0,4.95-1.17A8.36,8.36,0,0,0,402.29,92a13.29,13.29,0,0,0,1.28-6.2V84.19l-7.79,1.25a16.58,16.58,0,0,0-6.86,2.26,4.55,4.55,0,0,0-2.27,3.82,4.3,4.3,0,0,0,1.06,2.92,6.27,6.27,0,0,0,2.69,1.8A10.34,10.34,0,0,0,393.83,96.82Z"/><path class="cls-1" d="M425.88,103.45a1.88,1.88,0,0,1-1.88-1.87V50a1.84,1.84,0,0,1,.55-1.33,1.82,1.82,0,0,1,1.33-.54h6.47A1.86,1.86,0,0,1,434.22,50v51.62a1.88,1.88,0,0,1-1.87,1.87Z"/></g></g></svg>